# xmcd
#
# Track frame offsets:
#	150
#	12000
#	23629
#	34457
#	45756
#	60543
#	72513
#	84471
#	95702
#	107850
#	120028
#	132662
#	145082
#	158161
#	170303
#	182581
#	193181
#	205167
#
# Disc length: 2890 seconds
#
# Revision: 1
# Processed by: cddbd v1.5.2PL0 Copyright (c) Steve Scherf et al.
# Submitted via: audiograbber 1.83.01
#
DISCID=ee0b4812
DTITLE=Williamson II,Sonny Boy - Nine below zero 1951-1962 [CD 2)
DYEAR=2017
DGENRE=Blues
TTITLE0=Going in your direction
TTITLE1=Red hot kisses
TTITLE2=Getting out of town
TTITLE3=She brought life back to the dead (45 version)
TTITLE4=She brought life back to the dead (78 version)
TTITLE5=Empty bedroom
TTITLE6=From the bottom
TTITLE7=Mr. Downchild
TTITLE8=Stop now baby
TTITLE9=I cross my heart
TTITLE10=West Memphis Blues
TTITLE11=Come on back home
TTITLE12=Stop crying
TTITLE13=Clowning with the world (take 1)
TTITLE14=I ain't beggin' nobody (take 2)
TTITLE15=Shuckin' Mama
TTITLE16=From the bottom (take 1)
TTITLE17=From the bottom (take 3)
EXTD=
EXTT0=
EXTT1=
EXTT2=
EXTT3=
EXTT4=
EXTT5=
EXTT6=
EXTT7=
EXTT8=
EXTT9=
EXTT10=
EXTT11=
EXTT12=
EXTT13=
EXTT14=
EXTT15=
EXTT16=
EXTT17=
PLAYORDER=
